<svg width="36" height="36" viewBox="0 0 36 36" fill="none" xmlns="http://www.w3.org/2000/svg">
<path d="M17.3307 18.0014H18.6694C19.2474 18.0014 19.7311 17.5634 19.7888 16.9882L20.6888 7.9882C20.7549 7.32586 20.2353 6.75141 19.5694 6.75141H16.4307C15.7648 6.75141 15.2452 7.32586 15.3113 7.9882L16.2113 16.9882C16.269 17.5634 16.7527 18.0014 17.3307 18.0014ZM35.4481 15.1671C35.0248 13.1597 34.0777 11.3147 33.0413 9.54352C32.0323 7.81945 31.5001 5.96883 31.5001 4.18148V1.125C31.5001 0.503438 30.9966 0 30.3751 0H29.2501C28.6285 0 28.1251 0.503438 28.1251 1.125V4.18148C28.1251 10.4421 32.0386 12.0902 32.5681 18.6799C32.9007 22.8241 31.7911 26.0782 28.8261 29.4567C28.3029 30.0523 27.5267 30.375 26.7343 30.375H9.26583C8.472 30.375 7.69505 30.0523 7.17193 29.4553C4.20755 26.0761 3.09872 22.8213 3.432 18.6771C3.95232 12.2189 7.87505 10.343 7.87505 4.18148V1.125C7.87505 0.503438 7.37161 0 6.75005 0H5.62505C5.00349 0 4.50005 0.503438 4.50005 1.125V4.18148C4.50005 5.96883 3.96849 7.81875 2.9595 9.54141C1.9231 11.3105 0.976692 13.1541 0.55341 15.1608C-0.832449 21.7245 0.33966 26.768 4.61115 31.6519C4.9149 31.9985 5.25732 32.3023 5.62575 32.5688V34.875C5.62575 35.4966 6.12919 36 6.75075 36H9.00076C9.62232 36 10.1258 35.4966 10.1258 34.875V33.75H12.3758V34.875C12.3758 35.4966 12.8792 36 13.5008 36H15.7508C16.3723 36 16.8758 35.4966 16.8758 34.875V33.75H19.1258V34.875C19.1258 35.4966 19.6292 36 20.2508 36H22.5008C23.1223 36 23.6258 35.4966 23.6258 34.875V33.75H25.8758V34.875C25.8758 35.4966 26.3792 36 27.0008 36H29.2508C29.8723 36 30.3758 35.4966 30.3758 34.875V32.5688C30.7428 32.303 31.0845 31.9999 31.3876 31.654C35.659 26.7715 36.8326 21.7287 35.4481 15.1671ZM18.0001 20.2514C16.7576 20.2514 15.7501 21.259 15.7501 22.5014C15.7501 23.7438 16.7576 24.7514 18.0001 24.7514C19.2425 24.7514 20.2501 23.7438 20.2501 22.5014C20.2501 21.2583 19.2425 20.2514 18.0001 20.2514Z" fill="white" fill-opacity="0.66"/>
</svg>
