<svg width="32" height="32" viewBox="0 0 32 32" fill="none" xmlns="http://www.w3.org/2000/svg">
<path d="M18.6564 1.38063C18.2918 0.470625 17.1464 0 15.9973 0C14.8745 0 13.7482 0.45 13.3436 1.38063C9.09182 11.2406 0 13.92 0 20.8694C0 27.0219 7.15636 32 16 32C24.8436 32 32 27.0219 32 20.8694C32 13.885 22.9282 11.2856 18.6564 1.38063V1.38063ZM16 30C8.78182 30 2.90909 25.9038 2.90909 20.8694C2.90909 17.8469 5 15.7869 7.89455 12.9356C10.5473 10.3225 13.8345 7.08375 16.0018 2.25375C18.1682 7.09875 21.4618 10.3356 24.12 12.9462C27.0055 15.7825 29.0909 17.8313 29.0909 20.8694C29.0909 25.9038 23.2182 30 16 30ZM16 26C11.9891 26 8.72727 23.7569 8.72727 21C8.72727 20.4475 8.07636 20 7.27273 20C6.46909 20 5.81818 20.4475 5.81818 21C5.81818 24.8594 10.3864 28 16 28C16.8036 28 17.4545 27.5525 17.4545 27C17.4545 26.4475 16.8036 26 16 26Z" fill="white" fill-opacity="0.66"/>
</svg>
