<svg width="36" height="36" viewBox="0 0 36 36" fill="none" xmlns="http://www.w3.org/2000/svg">
<g clip-path="url(#clip0_3_127)">
<path d="M0.5625 15.75H24.75C28.9547 15.75 32.2594 11.9109 31.3453 7.54452C30.8109 4.99218 28.7508 2.93202 26.1984 2.39765C22.043 1.5328 18.3586 4.49296 18.0211 8.40233C17.993 8.72577 18.2672 8.99296 18.5836 8.99296H19.7227C20.018 8.99296 20.243 8.76093 20.2781 8.47265C20.5805 5.89921 23.0555 3.98671 25.8117 4.61952C27.4359 4.99218 28.7508 6.31405 29.1305 7.93827C29.8055 10.8773 27.5766 13.5 24.75 13.5H0.5625C0.253125 13.5 0 13.7531 0 14.0625V15.1875C0 15.4969 0.253125 15.75 0.5625 15.75ZM10.9688 18H0.5625C0.253125 18 0 18.2531 0 18.5625V19.6875C0 19.9969 0.253125 20.25 0.5625 20.25H11.0461C13.3945 20.25 15.4969 21.9656 15.7219 24.3C15.982 26.9789 13.8727 29.25 11.243 29.25C8.93672 29.25 7.03125 27.5062 6.77109 25.2773C6.73594 24.982 6.51094 24.757 6.21563 24.757H5.09063C4.76719 24.757 4.5 25.0312 4.52813 25.3476C4.83047 28.8 7.72734 31.507 11.25 31.507C15.0469 31.507 18.1125 28.3711 18 24.5531C17.8875 20.8476 14.6602 18 10.9688 18ZM27.7945 18H17.1422C17.8805 18.6469 18.5063 19.3992 18.9984 20.25H27.8719C30.8109 20.25 33.4336 22.3875 33.7219 25.3125C34.0523 28.6664 31.4086 31.5 28.125 31.5C25.5586 31.5 23.393 29.7773 22.718 27.4219C22.6477 27.1758 22.4367 27 22.1766 27H21.0445C20.693 27 20.4117 27.3234 20.4891 27.668C21.2977 31.1484 24.3984 33.75 28.125 33.75C32.5547 33.75 36.1336 30.0937 36 25.6359C35.8664 21.3258 32.1047 18 27.7945 18Z" fill="#FBFBFB" fill-opacity="0.66"/>
</g>
<defs>
<clipPath id="clip0_3_127">
<rect width="36" height="36" fill="white"/>
</clipPath>
</defs>
</svg>
